<svg width="22" height="22" viewBox="0 0 22 22" fill="none" xmlns="http://www.w3.org/2000/svg">
<path fill-rule="evenodd" clip-rule="evenodd" d="M6.10352e-05 10.9554V11.0446C0.0107248 13.7301 0.983691 16.1885 2.59202 18.0931C3.05721 18.6439 3.57556 19.1485 4.13914 19.5987C4.70637 20.0519 5.31943 20.4501 5.97025 20.7853C6.90277 21.2656 7.91281 21.6165 8.97666 21.8143C9.59151 21.9286 10.2243 21.9918 10.8706 21.9993C10.9136 21.9998 10.9568 22 11 22C14.6895 22 17.9547 20.1836 19.9502 17.3962C20.3681 16.8125 20.7304 16.1861 21.0291 15.525C21.6528 14.1448 22 12.613 22 11C22 7.73978 20.5816 4.81084 18.3284 2.79653C17.8065 2.32998 17.2398 1.91249 16.6355 1.55132C14.9873 0.56615 13.0598 0 11 0C10.888 0 10.7765 0.00167179 10.6654 0.00499153C8.99852 0.0547895 7.42483 0.475413 6.02396 1.18719C5.07091 1.67144 4.19785 2.29045 3.42988 3.01914C2.71666 3.69587 2.09407 4.4672 1.58222 5.31302C1.22114 5.90969 0.915173 6.54343 0.671356 7.20718C0.241905 8.37631 0.00529009 9.63855 6.10352e-05 10.9554ZM19.4813 14.0186C19.8171 13.075 20 12.0588 20 11C20 8.54265 19.0151 6.31533 17.4186 4.6912C16.5976 6.05399 15.5149 7.18424 14.2668 8.0469C14.7352 9.26262 14.9886 10.5603 15.0045 11.8778C15.7693 12.0484 16.5275 12.304 17.267 12.6488C18.0741 13.0252 18.8141 13.487 19.4813 14.0186ZM14.8414 13.8954C15.3752 14.0321 15.9041 14.22 16.4217 14.4614C17.2221 14.8346 17.9417 15.3105 18.5723 15.8661C17.0689 18.2008 14.5152 19.7953 11.5789 19.9817C12.5517 19.0585 13.3709 17.9405 13.9721 16.6514C14.3909 15.7531 14.6781 14.8272 14.8414 13.8954ZM12.9965 11.6219C12.9583 10.7382 12.7899 9.86839 12.5014 9.04079C9.6888 10.2998 6.3659 10.3765 3.35389 8.97197C3.01257 8.81281 2.68325 8.63837 2.36638 8.44983C2.12793 9.25835 1.99997 10.1142 1.99997 11C1.99997 12.9462 2.61769 14.748 3.66776 16.2203C5.83044 13.1875 9.3686 11.4987 12.9965 11.6219ZM5.04707 17.7502C6.77264 15.059 9.77143 13.5382 12.8586 13.6191C12.7231 14.3586 12.492 15.093 12.1595 15.8062C11.3777 17.4825 10.1454 18.805 8.67391 19.6965C7.31049 19.3328 6.07447 18.6569 5.04707 17.7502ZM11 2C12.7846 2 14.448 2.51946 15.8471 3.41543C15.2113 4.54838 14.3593 5.4961 13.3681 6.23057C12.3472 4.57072 10.8753 3.16433 9.02703 2.21692C9.66196 2.07492 10.3222 2 11 2ZM7.80625 3.84582C9.44625 4.61056 10.7475 5.80659 11.638 7.23588C9.34646 8.24654 6.64728 8.30095 4.19912 7.15936C3.8339 6.98905 3.48547 6.79735 3.15464 6.58645C3.91371 5.24006 5.00935 4.10867 6.3274 3.30645C6.82678 3.44058 7.32144 3.61975 7.80625 3.84582Z" fill="#7C76BB"/>
</svg>
